HIERARCHY
ROOT Hips
{
	OFFSET 0.00 0.00 0.00
	CHANNELS 6 Xposition Yposition Zposition Xrotation Yrotation Zrotation
	JOINT Spine
	{
		OFFSET 0.00000 1.15266 1.72900
		CHANNELS 3 Xrotation Yrotation Zrotation
		JOINT Spine1
		{
			OFFSET 0.00000 0.40032 2.27031
			CHANNELS 3 Xrotation Yrotation Zrotation
			JOINT Spine2
			{
				OFFSET 0.00000 0.20092 2.29656
				CHANNELS 3 Xrotation Yrotation Zrotation
				JOINT Spine3
				{
					OFFSET 0.00000 0.00000 2.30533
					CHANNELS 3 Xrotation Yrotation Zrotation
					JOINT Neck
					{
						OFFSET 0.00000 -0.86449 6.05149
						CHANNELS 3 Xrotation Yrotation Zrotation
						JOINT Head
						{
							OFFSET 0.00000 -0.55043 3.12167
							CHANNELS 3 Xrotation Yrotation Zrotation
							End Site
							{
								OFFSET 0.00000 0.00000 3.73175
							}
						}
					}
					JOINT RightShoulder
					{
						OFFSET -0.78828 -1.31380 4.25672
						CHANNELS 3 Xrotation Yrotation Zrotation
						JOINT RightArm
						{
							OFFSET -3.91513 0.00000 0.00000
							CHANNELS 3 Xrotation Yrotation Zrotation
							JOINT RightForeArm
							{
								OFFSET -6.91491 0.00000 0.00000
								CHANNELS 3 Xrotation Yrotation Zrotation
								JOINT RightHand
								{
									OFFSET -6.09622 0.00000 0.00000
									CHANNELS 3 Xrotation Yrotation Zrotation
									JOINT RightHandEnd
									{
										OFFSET -1.74995 0.00000 0.00000
										CHANNELS 3 Xrotation Yrotation Zrotation
										End Site
										{
											OFFSET -1.74995 0.00000 0.00000
										}
									}
									JOINT RightHandThumb1
									{
										OFFSET -0.69998 -1.16663 -0.46665
										CHANNELS 3 Yrotation Xrotation Zrotation
										End Site
										{
											OFFSET -1.69032 -0.45292 0.00000
										}
									}
								}
							}
						}
					}
					JOINT LeftShoulder
					{
						OFFSET 0.78828 -1.31380 4.25672
						CHANNELS 3 Xrotation Yrotation Zrotation
						JOINT LeftArm
						{
							OFFSET 3.91513 0.00000 0.00000
							CHANNELS 3 Xrotation Yrotation Zrotation
							JOINT LeftForeArm
							{
								OFFSET 6.91491 0.00000 0.00000
								CHANNELS 3 Xrotation Yrotation Zrotation
								JOINT LeftHand
								{
									OFFSET 6.09622 0.00000 0.00000
									CHANNELS 3 Xrotation Yrotation Zrotation
									JOINT LeftHandEnd
									{
										OFFSET 1.74995 0.00000 0.00000
										CHANNELS 3 Xrotation Yrotation Zrotation
										End Site
										{
											OFFSET 1.74995 0.00000 0.00000
										}
									}
									JOINT LeftHandThumb1
									{
										OFFSET 0.69998 -1.16663 -0.46665
										CHANNELS 3 Yrotation Xrotation Zrotation
										End Site
										{
											OFFSET 1.69032 -0.45292 0.00000
										}
									}
								}
							}
						}
					}
				}
			}
		}
	}
	JOINT RightUpLeg
	{
		OFFSET -2.33857 0.00000 -0.68318
		CHANNELS 3 Xrotation Yrotation Zrotation
		JOINT RightLeg
		{
			OFFSET 0.00000 0.00000 -10.74496
			CHANNELS 3 Xrotation Yrotation Zrotation
			JOINT RightFoot
			{
				OFFSET 0.00000 0.00000 -10.93085
				CHANNELS 3 Xrotation Yrotation Zrotation
				JOINT RightToeBase
				{
					OFFSET 0.00000 -4.08727 -1.48765
					CHANNELS 3 Xrotation Yrotation Zrotation
					End Site
					{
						OFFSET 0.00000 -1.89187 -0.00000
					}
				}
			}
		}
	}
	JOINT LeftUpLeg
	{
		OFFSET 2.33857 0.00000 -0.68318
		CHANNELS 3 Xrotation Yrotation Zrotation
		JOINT LeftLeg
		{
			OFFSET 0.00000 0.00000 -10.74496
			CHANNELS 3 Xrotation Yrotation Zrotation
			JOINT LeftFoot
			{
				OFFSET 0.00000 0.00000 -10.93085
				CHANNELS 3 Xrotation Yrotation Zrotation
				JOINT LeftToeBase
				{
					OFFSET 0.00000 -4.08727 -1.48765
					CHANNELS 3 Xrotation Yrotation Zrotation
					End Site
					{
						OFFSET 0.00000 -1.89187 -0.00000
					}
				}
			}
		}
	}
}
MOTION
Frames: 9
Frame Time:	0.0333333
 -3.2872 83.5848 24.6432 -5.0413 4.4294 73.0706 -1.8789 8.2444 0.4640 -2.1590 0.2631 -0.1158 13.7253 0.5753 -3.8377 -3.0758 0.5815 -1.7792 -16.6711 7.6512 3.0379 8.0563 5.2371 1.0034 -5.2929 -13.2552 8.2646 -25.8503 -1.8508 22.8065 0.0000 0.0000 33.4720 -12.0684 1.7302 5.1959 -0.0000 0.0000 -0.0000 0.0000 -0.0000 -0.0000 -3.8492 9.9439 -8.7366 10.2316 11.6538 -72.6334 -0.0000 0.0000 2.0880 1.5298 -0.5841 -7.6624 -0.0000 -0.0000 -0.0000 0.0000 0.0000 -0.0000 -20.2158 15.7981 -5.6662 15.9171 0.0000 0.0000 5.8598 1.8806 6.3068 -2.3097 0.0000 -0.0000 -1.9812 -8.1820 24.3866 4.3908 0.0000 0.0000 -6.7582 1.3645 6.6428 -4.8455 0.0000 -0.0000
 -3.2238 83.6397 24.6073 -4.3463 4.3521 68.3007 -2.1328 8.2015 0.5885 -2.3531 0.1831 -0.1316 13.9155 0.9229 -4.1297 -3.2075 0.7753 -1.9092 -17.0689 8.9598 4.1846 7.6130 6.7537 2.3873 -6.4845 -13.2517 7.8474 -26.4943 -1.6283 23.9099 0.0000 0.0000 36.0587 -10.0749 1.8906 6.0017 0.0000 -0.0000 -0.0000 -0.0000 -0.0000 0.0000 -3.8486 9.5246 -8.9349 10.8320 12.1748 -74.1114 -0.0000 0.0000 2.4208 1.8292 -0.1967 -7.0350 -0.0000 0.0000 -0.0000 -0.0000 -0.0000 0.0000 -19.9888 16.2857 -7.8630 15.2891 0.0000 0.0000 5.4075 2.6030 7.6899 -3.1361 0.0000 -0.0000 -1.4667 -7.5770 27.2549 5.5736 0.0000 0.0000 -7.9298 0.7911 8.5432 -4.4796 0.0000 -0.0000
 -3.1450 83.7153 24.5587 -3.1747 4.3013 63.3298 -2.4530 7.8693 0.6390 -2.5776 0.0819 -0.1477 14.1441 1.5252 -4.3095 -3.4487 1.1768 -2.0530 -18.0536 10.7397 5.5617 7.1215 8.0984 3.7320 -7.3761 -13.2614 7.7354 -27.6636 -1.0124 24.6675 -0.0000 0.0000 39.2831 -8.5018 2.2108 6.6941 0.0000 -0.0000 0.0000 -0.0000 0.0000 0.0000 -3.9605 9.0930 -9.0622 11.4466 12.9515 -75.2543 -0.0000 0.0000 3.1485 1.5633 -0.1625 -6.1647 0.0000 0.0000 -0.0000 -0.0000 0.0000 0.0000 -20.3116 16.7573 -10.0387 15.1300 0.0000 0.0000 5.9223 2.1110 7.4558 -3.1290 0.0000 -0.0000 -0.9890 -6.2777 29.3617 6.0884 0.0000 0.0000 -8.7540 0.2792 11.3538 -4.3344 0.0000 -0.0000
 -3.0566 83.7930 24.4960 -1.7796 4.0590 58.2432 -2.4416 7.2151 0.5508 -2.5976 -0.1542 -0.2047 13.9521 2.5506 -4.4237 -3.8334 1.7675 -2.2789 -19.4014 12.4341 7.1120 6.6167 9.2400 4.9970 -8.0056 -13.0898 7.8292 -29.1171 -0.5345 25.1156 -0.0000 0.0000 42.9131 -7.2026 2.8757 7.3892 0.0000 0.0000 0.0000 0.0000 -0.0000 -0.0000 -3.9407 8.5174 -9.0676 11.9560 13.2333 -76.1119 -0.0000 0.0000 4.2023 1.5477 0.1983 -5.1547 -0.0000 -0.0000 -0.0000 0.0000 0.0000 -0.0000 -20.9724 16.9917 -13.3928 15.4252 0.0000 0.0000 6.7831 1.1158 5.5342 -2.5278 0.0000 -0.0000 -0.6827 -4.6731 30.9841 6.6446 0.0000 0.0000 -9.5456 0.0043 14.6311 -4.3064 0.0000 -0.0000
 -2.9742 83.8492 24.4185 -0.2761 3.7306 53.1565 -2.1993 6.4009 0.3721 -2.4433 -0.4578 -0.2719 13.3479 3.7406 -4.5870 -4.2605 2.4329 -2.5264 -20.8953 13.7010 8.5905 5.8273 10.2926 6.2046 -8.4533 -12.7866 7.8324 -30.7526 -0.3641 25.6264 -0.0000 0.0000 46.5447 -6.0071 3.8741 8.1900 -0.0000 0.0000 0.0000 0.0000 -0.0000 -0.0000 -3.6911 7.7320 -9.0860 12.1585 13.0435 -76.5170 -0.0000 0.0000 5.0713 2.0522 1.1280 -4.3837 0.0000 -0.0000 0.0000 0.0000 0.0000 -0.0000 -21.9844 16.7723 -17.2295 16.0600 0.0000 0.0000 6.6976 1.0662 2.0928 -2.0054 0.0000 -0.0000 -1.0897 -3.3152 32.8071 8.2730 0.0000 0.0000 -10.8309 -0.1843 17.5847 -4.0338 0.0000 -0.0000
 -2.8945 83.8614 24.3347 1.0771 3.6041 48.1368 -2.0362 5.4214 0.1848 -2.2981 -0.7702 -0.3420 12.6775 4.4800 -4.8800 -4.5648 3.0830 -2.7555 -22.5831 14.7525 9.9368 4.6405 11.2359 7.2943 -8.4899 -12.3910 7.9505 -32.7860 -0.2694 26.3261 -0.0000 0.0001 49.9648 -5.1153 5.0885 9.0891 -0.0000 -0.0000 -0.0000 -0.0000 -0.0000 0.0000 -3.4461 6.8819 -9.0863 12.1523 13.1700 -76.3282 -0.0000 0.0000 5.3561 2.6133 1.8846 -3.9379 -0.0000 0.0000 -0.0000 -0.0000 -0.0000 0.0000 -23.0195 15.6447 -20.3886 16.3088 0.0000 0.0000 5.9771 1.3035 -2.3997 -1.7868 0.0000 -0.0000 -2.1875 -2.7269 34.7729 10.9747 0.0000 0.0000 -12.5432 -0.3676 20.2420 -3.6834 0.0000 -0.0000
 -2.8033 83.8059 24.2499 2.0938 3.6305 43.2759 -1.9245 4.4370 0.0502 -2.1554 -1.0101 -0.4241 12.0876 4.3653 -5.3496 -4.7251 3.6305 -2.9803 -24.4552 15.5967 11.0934 3.2063 11.9054 8.1044 -8.1494 -11.7278 8.3802 -35.1031 -0.5121 26.9142 -0.0000 0.0001 53.1564 -4.6519 6.3152 9.8545 -0.0000 0.0000 -0.0000 0.0000 0.0000 -0.0000 -3.2718 6.0866 -9.0640 12.0476 14.1581 -75.6746 -0.0000 0.0000 5.3445 2.5656 1.7966 -3.6405 -0.0000 -0.0000 -0.0000 0.0000 -0.0000 -0.0000 -23.5736 13.4407 -22.8250 15.8251 0.0000 0.0000 5.2894 0.5489 -5.9192 -1.5748 0.0000 -0.0000 -3.2363 -2.8154 36.0007 13.9023 0.0000 0.0000 -14.2424 -0.2708 23.0538 -3.4752 0.0000 -0.0000
 -2.7058 83.6644 24.1583 2.9008 3.5311 38.7569 -1.6835 3.6787 -0.0453 -1.9211 -1.0767 -0.4844 11.5168 3.7480 -5.9902 -4.8858 3.9538 -3.1802 -26.2622 15.8901 11.8199 1.7413 12.2486 8.4896 -7.9900 -10.8639 8.6978 -37.0684 -1.6167 27.2552 -0.0000 0.0001 56.0243 -4.3028 7.2285 10.2714 0.0000 -0.0000 -0.0000 -0.0000 0.0000 -0.0000 -2.9680 5.3488 -9.2399 11.7819 15.7483 -74.8367 -0.0000 0.0000 5.5696 2.1243 1.3037 -3.5832 -0.0000 -0.0000 0.0000 0.0000 0.0000 -0.0000 -23.5920 10.4478 -24.2183 15.0040 0.0000 0.0000 4.7728 -0.1264 -6.6657 -1.3744 0.0000 -0.0000 -3.8132 -3.1731 36.0661 16.7483 0.0000 0.0000 -15.9479 0.4866 25.4301 -3.1519 0.0000 -0.0000
 -2.6157 83.4375 24.0609 3.6577 3.3544 34.5722 -1.3685 2.8564 -0.0650 -1.7301 -1.0215 -0.5220 11.1263 3.2342 -6.6256 -5.1663 4.0716 -3.3259 -27.9937 15.8015 12.1313 0.3403 12.3566 8.4603 -8.2551 -10.2643 8.7027 -38.4875 -3.2428 27.6225 -0.0000 0.0001 58.4046 -3.7309 7.6977 10.4594 0.0000 -0.0000 0.0000 0.0000 0.0000 0.0000 -2.5334 4.9299 -9.7916 11.4258 16.9457 -73.8337 -0.0000 0.0000 5.9104 2.0236 1.3110 -3.9332 0.0000 -0.0000 0.0000 -0.0000 0.0000 -0.0000 -23.4441 7.0717 -23.2657 14.1056 0.0000 0.0000 4.6444 1.1314 -5.6426 -1.2694 0.0000 -0.0000 -4.0191 -3.7598 35.1543 19.6297 0.0000 0.0000 -17.7615 2.0674 26.5104 -2.8455 0.0000 -0.0000
